HIERARCHY
ROOT Hips
{
  OFFSET 7.333 -26.027 -164.856
  CHANNELS 6 Xposition Yposition Zposition Zrotation Xrotation Yrotation
  JOINT LeftUpLeg
  {
    OFFSET 10.092 0.000 0.000
    CHANNELS 3 Zrotation Xrotation Yrotation
    JOINT LeftLeg
    {
      OFFSET 0.000 -38.160 -0.000
    CHANNELS 3 Zrotation Xrotation Yrotation
      JOINT LeftFoot
      {
        OFFSET -0.000 -24.040 0.000
    CHANNELS 3 Zrotation Xrotation Yrotation
        End Site
        {
          OFFSET -0.000 0.000 12.945
        }
      }
    }
  }
  JOINT RightUpLeg
  {
    OFFSET -10.092 -0.000 0.000
    CHANNELS 3 Zrotation Xrotation Yrotation
    JOINT RightLeg
    {
      OFFSET 0.000 -33.046 0.000
    CHANNELS 3 Zrotation Xrotation Yrotation
      JOINT RightFoot
      {
        OFFSET 0.000 -22.031 -0.000
    CHANNELS 3 Zrotation Xrotation Yrotation
        End Site
        {
          OFFSET 0.000 -0.000 11.863
        }
      }
    }
  }
  JOINT Spine
  {
    OFFSET -0.000 16.511 0.000
    CHANNELS 3 Zrotation Xrotation Yrotation
    JOINT LeftShoulder
    {
      OFFSET 0 16.511 0
    CHANNELS 3 Zrotation Xrotation Yrotation
      JOINT LeftArm
      {
        OFFSET 16.337 0.000 0.000
    CHANNELS 3 Zrotation Xrotation Yrotation
        JOINT LeftForeArm
        {
          OFFSET 0.000 -24.030 0.000
    CHANNELS 3 Zrotation Xrotation Yrotation
          JOINT LeftHand
          {
            OFFSET 0.000 -17.629 -0.000
    CHANNELS 3 Zrotation Xrotation Yrotation
            End Site
            {
              OFFSET 0.000 -11.753 -0.000
            }
          }
        }
      }
    }
    JOINT RightShoulder
    {
      OFFSET 0 16.511 0
    CHANNELS 3 Zrotation Xrotation Yrotation
      JOINT RightArm
      {
        OFFSET -16.337 0.000 0.000
    CHANNELS 3 Zrotation Xrotation Yrotation
        JOINT RightForeArm
        {
          OFFSET -0.000 -19.534 0.000
    CHANNELS 3 Zrotation Xrotation Yrotation
          JOINT RightHand
          {
            OFFSET 0.000 -19.514 -0.000
    CHANNELS 3 Zrotation Xrotation Yrotation
            End Site
            {
              OFFSET 0.000 -13.010 -0.000
            }
          }
        }
      }
    }
    JOINT Neck
    {
      OFFSET -0.000 16.511 0.000
    CHANNELS 3 Zrotation Xrotation Yrotation
      JOINT Head
      {
        OFFSET -0.000 12.493 -0.000
    CHANNELS 3 Zrotation Xrotation Yrotation
        End Site
        {
          OFFSET -0.000 8.328 -0.000
        }
      }
    }
  }
}
MOTION
Frames: 21
Frame Time: 0.0333333
0 0 0 -1.997010e+00 -1.055660e+00 -1.262810e+01 2.596270e-01 1.405170e+01 -6.306900e-02 3.258430e+00 -1.836910e+01 1.107460e+00 0 0 0 3.782440e+00 1.408030e+01 -9.214870e-01 1.824480e+00 -2.233960e+01 2.093390e+00 0 0 0 0 0 -4.300000e-05 0 0 0 6.355020e+01 -1.493540e+01 -1.421460e+00 1.378500e+02 -2.983800e+01 1.492730e+02 0 0 0 0 0 0 -5.526980e+01 -4.118990e+01 3.015700e+01 -1.229330e+02 -2.800200e+01 -1.524230e+02 0 0 0 -1.665550e-01 -9.226210e-01 -2.683000e-03 0 0 1.000000e-06 
0 0 0 -1.953761e+00 -1.074490e+00 -1.141340e+01 2.696990e-01 1.415080e+01 -6.600100e-02 3.474400e+00 -1.839060e+01 1.180150e+00 0 0 1.000000e-06 4.114960e+00 1.381140e+01 -9.840120e-01 1.251970e+00 -2.128000e+01 1.909170e+00 0 0 0 -1.000000e-06 0 -4.000000e-05 0 0 0 6.408690e+01 -1.963890e+01 -3.605590e+00 1.347600e+02 -3.041360e+01 1.462340e+02 -1.000000e-06 1.000000e-06 0 0 0 0 -5.761080e+01 -3.874250e+01 2.735520e+01 -1.231230e+02 -2.641270e+01 -1.542560e+02 1.000000e-06 1.000000e-06 0 -3.126220e-01 -9.083340e-01 -4.956000e-03 0 0 0 
0 0 0 -1.836345e+00 -1.213300e+00 -1.087070e+01 -5.980671e-02 1.379964e+01 1.400451e-02 3.641720e+00 -1.763900e+01 1.089535e+00 0 3.302036e-08 -1.158053e-23 3.491620e+00 1.398018e+01 -8.427943e-01 1.770820e+00 -2.070489e+01 1.825207e+00 0 3.133289e-09 -1.460774e-07 5.740651e-06 -8.813269e-06 3.000000e-06 0 0 0 6.450819e+01 -1.970789e+01 -3.452586e+00 1.301790e+02 -2.891610e+01 1.431387e+02 -2.080743e-08 8.228959e-07 5.745768e-09 0 0 0 -5.966820e+01 -3.622740e+01 2.489290e+01 -1.202784e+02 -1.999310e+01 -1.591819e+02 -9.425089e-08 5.047320e-07 1.845243e-07 9.428900e-02 -1.075257e+00 1.769000e-03 0 0 -3.940176e-07 
0 0 0 -1.576857e+00 -1.735923e+00 -1.128343e+01 -7.358302e-01 1.501703e+01 1.908868e-01 3.966942e+00 -1.887998e+01 1.054623e+00 0 3.848552e-08 8.764288e-07 2.660127e+00 1.551139e+01 -7.119540e-01 2.547615e+00 -2.249665e+01 1.958324e+00 0 5.227795e-08 NaN -1.000000e-06 NaN -1.000909e-05 0 0 0 6.261121e+01 -1.489666e+01 -1.604237e+00 1.251786e+02 -2.581898e+01 1.407824e+02 8.448432e-08 1.323489e-22 -5.012442e-09 0 0 0 -6.179239e+01 -3.234027e+01 2.205790e+01 -1.176348e+02 -1.345471e+01 -1.667947e+02 -1.236350e-07 NaN 1.697414e-07 5.121498e-01 -1.117339e+00 9.987291e-03 0 0 NaN 
0 0 0 -1.523781e+00 -1.778470e+00 -1.241717e+01 -1.345480e+00 1.510270e+01 3.506138e-01 4.785782e+00 -1.812938e+01 1.086513e+00 0 5.058419e-08 3.308722e-24 2.560541e+00 1.548850e+01 -6.844503e-01 2.421636e+00 -2.232190e+01 1.861434e+00 0 -2.390639e-08 NaN -7.179342e-07 0 -1.405318e-05 0 0 0 6.475319e+01 -8.907504e+00 1.857866e+00 1.153247e+02 -2.094224e+01 1.343097e+02 -1.034824e-08 1.323489e-23 -9.385592e-07 0 0 0 -6.153474e+01 -2.952358e+01 2.122700e+01 -1.132727e+02 -1.843136e+00 1.608689e+02 -1.122850e-08 NaN 5.317859e-07 2.349650e-01 -1.252821e+00 5.138000e-03 0 0 NaN 
0 0 0 -1.575540e+00 -1.978040e+00 -1.314577e+01 -1.075100e+00 1.584669e+01 2.938810e-01 4.044770e+00 -1.855890e+01 9.593831e-01 0 NaN NaN 2.625281e+00 1.544183e+01 -6.991208e-01 2.377040e+00 -2.200611e+01 1.846559e+00 0 -1.709402e-09 -1.995326e-08 1.724877e-06 -2.610749e-06 -2.009691e-05 0 0 0 6.148945e+01 -8.892697e-01 5.899837e+00 1.072110e+02 -1.629964e+01 1.282524e+02 NaN 8.506234e-08 -8.157162e-07 0 0 0 -6.003125e+01 -2.369811e+01 1.962870e+01 -1.081143e+02 6.759990e+00 1.441157e+02 NaN 8.633708e-08 NaN 1.818550e-01 -1.324620e+00 4.203000e-03 0 0 9.087896e-08 
0 0 0 -1.618661e+00 -1.780700e+00 -1.329752e+01 -8.654240e-01 1.568050e+01 2.338870e-01 3.605510e+00 -1.830030e+01 8.710370e-01 0 NaN -1.135254e-09 2.641546e+00 1.518721e+01 -6.922425e-01 2.539990e+00 -2.146140e+01 1.868719e+00 0 1.565830e-08 -2.291079e-08 -1.000000e-06 -2.774242e-06 -8.686441e-05 0 0 0 5.715182e+01 6.031984e+00 1.059382e+01 9.670144e+01 -1.352823e+01 1.098469e+02 -2.354816e-08 NaN NaN 0 0 0 -5.544511e+01 -1.554821e+01 1.766190e+01 -1.015727e+02 1.230219e+01 1.192184e+02 -3.259823e-09 1.353737e-07 NaN 1.963270e-01 -1.299008e+00 4.448000e-03 0 0 2.581811e-07 
0 0 0 -1.342252e+00 -1.103220e+00 -1.362589e+01 -1.080690e+00 1.520920e+01 2.835150e-01 3.756810e+00 -1.885380e+01 8.776090e-01 0 2.537293e-08 4.755814e-09 2.213422e+00 1.397540e+01 -5.354365e-01 3.121730e+00 -2.055020e+01 1.853770e+00 0 4.520511e-08 -2.057457e-08 -3.443998e-06 NaN 2.000000e-05 0 0 0 4.939960e+01 1.281250e+01 1.787950e+01 8.486670e+01 -1.517522e+01 7.732960e+01 -6.586852e-09 NaN NaN 0 0 0 -5.045631e+01 -9.846110e+00 1.583600e+01 -9.020073e+01 1.595307e+01 8.979680e+01 -1.315649e-07 NaN 9.800172e-08 2.842530e-01 -1.035050e+00 5.134000e-03 0 0 NaN 
0 0 0 -1.415350e+00 -1.104310e+00 -1.434321e+01 -1.024923e+00 1.500420e+01 2.657030e-01 3.866780e+00 -1.850790e+01 9.135326e-01 0 NaN -7.865969e-09 2.230772e+00 1.389050e+01 -5.355460e-01 3.386700e+00 -2.057780e+01 1.954610e+00 0 3.863038e-08 -8.516073e-09 NaN -9.446395e-07 8.600000e-05 0 0 0 4.568571e+01 1.856710e+01 2.428955e+01 6.675883e+01 -1.953006e+01 4.618075e+01 -5.375278e-09 9.283215e-08 -9.957814e-08 0 0 0 -4.677865e+01 -7.232610e+00 1.502220e+01 -7.901216e+01 1.766865e+01 6.343944e+01 NaN NaN 1.504425e-07 -1.280870e-01 -9.542630e-01 -2.133000e-03 0 0 NaN 
0 0 0 -1.201618e+00 -9.104400e-01 -1.457460e+01 -1.032208e+00 1.470405e+01 2.619715e-01 3.019822e+00 -1.751540e+01 6.093304e-01 0 NaN -1.356745e-08 2.034950e+00 1.366037e+01 -4.807446e-01 3.258943e+00 -2.060496e+01 1.847262e+00 0 NaN -9.148939e-09 NaN -2.200279e-06 6.800000e-05 0 0 0 4.178085e+01 2.155825e+01 2.934940e+01 5.178110e+01 -2.165667e+01 3.194090e+01 -1.221450e-09 NaN 1.085025e-07 0 0 0 -4.303780e+01 -5.194011e+00 1.437453e+01 -7.082075e+01 1.665528e+01 4.755781e+01 NaN 3.262544e-07 NaN 1.468000e-02 -1.032922e+00 2.640000e-04 0 0 1.024426e-07 
0 0 0 -1.000770e+00 -8.445940e-01 -1.418020e+01 -1.154683e+00 1.446360e+01 2.886129e-01 3.056110e+00 -1.784990e+01 5.940020e-01 0 2.253858e-08 7.915934e-09 1.559710e+00 1.389352e+01 -3.745750e-01 4.222620e+00 -2.162584e+01 2.120137e+00 0 3.584229e-08 -2.884031e-08 3.874991e-08 0 7.500000e-05 0 0 0 3.661377e+01 2.326190e+01 3.505550e+01 4.428710e+01 -2.510850e+01 2.836278e+01 -1.144874e-08 NaN NaN 0 0 0 -3.766900e+01 -2.872472e+00 1.360421e+01 -7.002690e+01 1.416283e+01 4.304205e+01 -2.040891e-07 NaN NaN 2.156804e-01 -1.174789e+00 4.434481e-03 0 0 NaN 
0 0 0 -8.567840e-01 -7.518993e-01 -1.365100e+01 -1.890380e+00 1.421980e+01 4.645240e-01 4.245900e+00 -1.768710e+01 7.336370e-01 0 NaN 6.516625e-09 1.777240e+00 1.399800e+01 -4.300170e-01 3.137930e+00 -2.170348e+01 1.826321e+00 0 2.954402e-08 -9.396849e-09 -1.912680e-09 -3.457403e-06 -6.900000e-05 0 0 0 3.521156e+01 2.281038e+01 3.593770e+01 4.054620e+01 -2.273060e+01 2.406790e+01 -2.132456e-08 7.429381e-08 NaN 0 0 0 -3.550709e+01 -1.705789e+00 1.285424e+01 -6.927791e+01 1.264259e+01 4.036886e+01 NaN NaN -1.312518e-07 2.063650e-01 -1.089300e+00 3.924511e-03 0 0 NaN 
0 0 0 -1.082357e+00 -8.696033e-01 -1.356030e+01 -1.596630e+00 1.431890e+01 3.949420e-01 4.381590e+00 -1.781966e+01 8.687530e-01 0 NaN -7.498544e-09 2.335900e+00 1.417601e+01 -5.722650e-01 2.514470e+00 -2.055270e+01 1.804670e+00 0 NaN -5.629485e-09 1.275669e-07 4.235165e-22 -4.900000e-05 0 0 0 3.440780e+01 2.399416e+01 3.780730e+01 4.285628e+01 -2.790327e+01 2.888858e+01 1.930148e-09 1.559633e-07 -6.489797e-08 0 0 0 -3.690605e+01 -2.536117e+00 1.345228e+01 -6.839245e+01 1.499017e+01 4.243716e+01 NaN 6.985871e-08 NaN -3.379594e-02 -1.111560e+00 -6.720000e-04 0 0 -2.114630e-09 
0 0 0 -1.373060e+00 -7.635210e-01 -1.334399e+01 -1.054770e+00 1.451490e+01 2.643920e-01 4.365070e+00 -1.859340e+01 1.067310e+00 0 2.303114e-08 3.506258e-09 2.665450e+00 1.420150e+01 -6.543620e-01 2.824060e+00 -2.117214e+01 2.073710e+00 0 2.539226e-08 -1.749261e-08 -6.211978e-08 NaN 8.470329e-22 0 0 0 3.519385e+01 2.440611e+01 3.725620e+01 5.098830e+01 -3.092740e+01 3.807338e+01 -7.489512e-09 NaN 3.317151e-08 0 0 0 -3.981823e+01 -4.650605e+00 1.500570e+01 -6.889904e+01 1.778570e+01 4.680769e+01 2.526067e-08 NaN NaN -1.826900e-01 -9.451322e-01 -3.012000e-03 0 0 7.780810e-08 
0 0 0 -1.483320e+00 -6.470156e-01 -1.311550e+01 -5.794800e-01 1.448160e+01 1.449200e-01 4.094810e+00 -1.932530e+01 1.170740e+00 0 NaN 3.289460e-09 3.153570e+00 1.399050e+01 -7.631280e-01 2.397050e+00 NaN 2.074105e+00 0 3.325756e-08 -5.948523e-09 -1.022993e-07 4.962399e-06 2.700000e-05 0 0 0 3.877094e+01 2.333411e+01 3.311090e+01 5.868890e+01 -2.845400e+01 4.506952e+01 -2.408933e-08 NaN NaN 0 0 0 -4.164962e+01 -6.262424e+00 1.606680e+01 -7.571509e+01 1.741556e+01 5.684486e+01 -9.194824e-08 NaN 7.321840e-08 -5.289200e-02 -8.096030e-01 -7.450000e-04 0 0 NaN 
0 0 0 -1.722450e+00 -6.621695e-01 -1.268330e+01 9.984300e-02 1.396970e+01 -2.363859e-02 3.363470e+00 -1.812778e+01 1.077787e+00 0 NaN -2.133237e-08 3.676410e+00 1.380080e+01 -8.776247e-01 1.786890e+00 -2.150209e+01 1.958852e+00 0 NaN -1.463501e-08 -3.757655e-08 NaN 9.000000e-06 0 0 0 4.279979e+01 2.089014e+01 2.795620e+01 6.916129e+01 -2.550635e+01 5.546530e+01 -9.299657e-10 7.219800e-08 -7.808114e-08 0 0 0 -4.693631e+01 -9.696485e+00 1.713315e+01 -7.997252e+01 1.864016e+01 6.662209e+01 NaN -1.522045e-07 2.583026e-07 7.842300e-02 -6.646595e-01 9.090000e-04 0 0 1.073402e-07 
0 0 0 -1.787240e+00 -4.979801e-01 -1.240420e+01 1.783275e-01 1.413483e+01 -4.357039e-02 3.490494e+00 -1.933790e+01 1.214149e+00 0 9.413273e-09 4.021735e-09 3.490927e+00 1.305658e+01 -7.890320e-01 2.476936e+00 -2.093315e+01 2.044460e+00 0 4.686189e-08 -2.068240e-07 1.415957e-07 NaN -7.794035e-05 0 0 0 4.957975e+01 1.696229e+01 2.073890e+01 7.966595e+01 -1.996855e+01 6.918433e+01 -1.911215e-08 8.659729e-08 2.198989e-07 0 0 0 -5.223452e+01 -1.366228e+01 1.787641e+01 -8.629510e+01 1.685314e+01 8.096212e+01 NaN NaN NaN 5.236900e-02 -7.199059e-01 6.580000e-04 0 0 4.991889e-08 
0 0 0 -1.392675e+00 -1.636792e-01 -1.248467e+01 -4.266331e-01 1.333215e+01 9.893269e-02 3.971318e+00 -1.917620e+01 1.168460e+00 0 2.475395e-08 7.685765e-09 3.189197e+00 1.231200e+01 -6.804886e-01 2.201925e+00 -2.011310e+01 1.836564e+00 0 2.674607e-08 NaN -1.267324e-07 -2.012340e-05 -1.060000e-04 0 0 0 5.766710e+01 1.017945e+01 1.298840e+01 8.911325e+01 -1.273779e+01 8.888987e+01 -1.690979e-08 NaN NaN 0 0 0 -5.689620e+01 -1.925934e+01 1.910270e+01 -9.418740e+01 1.199117e+01 1.051298e+02 -8.291446e-08 NaN NaN -1.165590e-01 -8.130800e-01 -1.653831e-03 0 0 6.314068e-07 
0 0 0 -1.232587e+00 -6.386080e-01 -1.235807e+01 -4.936364e-01 1.383949e+01 1.181664e-01 3.385840e+00 -1.937869e+01 9.649138e-01 0 2.487562e-08 -2.265840e-09 3.376558e+00 1.305787e+01 -7.636685e-01 1.104300e+00 -2.068420e+01 1.578492e+00 0 1.505233e-07 NaN -1.228512e-07 NaN 7.000000e-06 0 0 0 6.346286e+01 2.421440e+00 7.570780e+00 9.937765e+01 -1.165800e+01 1.184307e+02 -9.384073e-09 1.058573e-07 NaN 0 0 0 -6.227324e+01 -2.550583e+01 1.921257e+01 -1.010160e+02 4.802764e+00 1.389947e+02 -8.649385e-08 9.995845e-08 5.937641e-07 1.577930e-01 -9.512859e-01 2.613495e-03 0 0 NaN 
0 0 0 -1.907096e+00 -1.038135e+00 -1.136093e+01 1.738981e-01 1.306546e+01 -3.930836e-02 3.582599e+00 -1.647238e+01 1.064641e+00 0 2.521008e-08 1.255494e-08 3.914604e+00 1.342194e+01 -9.096894e-01 1.345447e+00 -2.011966e+01 1.828905e+00 0 NaN -1.724825e-08 1.389106e-07 NaN -1.500000e-05 0 0 0 7.103673e+01 -7.491868e+00 3.330411e+00 1.072366e+02 -1.324104e+01 1.317314e+02 -1.988738e-08 9.886625e-08 -7.885292e-08 0 0 0 -6.918432e+01 -2.963123e+01 1.669429e+01 -1.058986e+02 -4.484138e+00 1.744957e+02 7.187381e-09 9.581289e-08 NaN -4.496078e-03 -1.318192e+00 -1.114334e-04 0 0 NaN 
0 0 0 -2.165262e+00 -9.042380e-01 -1.138142e+01 7.813769e-01 1.385197e+01 -1.872733e-01 3.490684e+00 -1.881130e+01 1.371584e+00 0 NaN 2.912383e-09 4.520910e+00 1.400070e+01 -1.095270e+00 1.049925e+00 -1.871621e+01 2.064780e+00 0 NaN -4.964434e-09 8.629160e-08 -2.077215e-06 3.461024e-05 0 0 0 7.528216e+01 -1.417911e+01 1.886656e+00 1.147669e+02 -1.720853e+01 1.374898e+02 -2.336851e-08 NaN -1.652675e-07 0 0 0 -7.206824e+01 -3.380075e+01 1.603002e+01 -1.104250e+02 -1.389890e+01 -1.613860e+02 7.708504e-08 NaN NaN 1.974490e-01 -1.263680e+00 4.352000e-03 0 0 1.063453e-07 
